<?xml version="1.0" encoding="utf-8"?>
<!-- Generator: Adobe Illustrator 17.0.0, SVG Export Plug-In . SVG Version: 6.00 Build 0)  -->
<!DOCTYPE svg PUBLIC "-//W3C//DTD SVG 1.1//EN" "http://www.w3.org/Graphics/SVG/1.1/DTD/svg11.dtd">
<svg version="1.1" id="Layer_1" xmlns="http://www.w3.org/2000/svg" xmlns:xlink="http://www.w3.org/1999/xlink" x="0px" y="0px"
	 width="120px" height="120px" viewBox="0 0 120 120" enable-background="new 0 0 120 120" xml:space="preserve">
<title>cart</title>
<desc>Created with Sketch.</desc>
<g>
	<g>
		<g>
			<g>
				<path fill="none" stroke="#EF7E93" stroke-width="8" stroke-miterlimit="10" d="M84.308,11.456
					c-1.459,0-2.935,0.103-4.419,0.312c-6.505,0.915-12.148,3.752-16.821,8.418l-2.857,3.123c0,0,0,0-0.056-0.056
					c-0.985-0.97-2.374-2.225-3.372-3.182c-6.016-5.764-13.023-8.599-20.901-8.599c-1.488,0-3.008,0.101-4.558,0.303
					c-5.951,0.774-11.237,3.255-15.676,7.332c-7.826,7.187-11.086,16.141-9.78,26.651c0.845,6.806,3.938,12.587,8.79,17.436
					C28.462,76.991,42.26,90.793,56.054,104.6c1.284,1.286,2.534,2.607,3.832,3.945c0.324-0.296,0.532-0.471,0.722-0.661
					c14.993-14.992,29.995-29.974,44.971-44.984c5.241-5.253,8.164-11.646,8.737-19.021c0.501-6.455-0.94-12.528-4.369-18.06
					C104.28,16.674,94.717,11.456,84.308,11.456L84.308,11.456z"/>
			</g>
		</g>
	</g>
</g>
</svg>
